PathFileType	4	(X/Y/Z)	OpenSim_Sub03_EMGStiffKnee_Gyro.trc
DataRate	CameraRate	NumFrames	NumMarkers	Units	OrigDataRate	OrigDataStartFrame	OrigNumFrames
100	100	38	8	m	100	1	7597
Frame#	Time	torso_imu_offset_imu	pelvis_imu_offset_imu	tibia_r_imu_offset_imu	femur_r_imu_offset_imu	tibia_l_imu_offset_imu	femur_l_imu_offset_imu	toes_r_imu_offset_imu	toes_l_imu_offset_imu
				X1	Y1	Z1	X2	Y2	Z2	X3	Y3	Z3	X4	Y4	Z4	X5	Y5	Z5	X6	Y6	Z6	X7	Y7	Z7	X8		Y8	Z8	

1	0	0.04020959	-0.01002175	0.00087410	0.04842965	0.00949173	0.01125506	0.02598629	0.00108366	-0.01270681	0.05290946	0.01492188	-0.00855652	0.00353437	0.00239578	0.00245231	0.01337582	-0.00245440	-0.01731815	0.00249447	0.00367795	0.00062813	-0.00417245	0.00724918	0.00244581
2	0.01000000	0.03773425	-0.00975348	0.00109067	0.04250267	0.01332802	0.01194347	0.02018941	-0.00193865	-0.01092056	0.04395630	0.01043385	-0.01425291	-0.00078358	0.00799478	0.00380679	0.01376939	-0.00945129	-0.00907648	0.00143844	0.00484935	-0.00130691	-0.00290957	0.00435949	0.00432344
3	0.02000000	0.04109193	-0.01553582	-0.00018144	0.04569353	0.01007775	0.00982559	0.01810740	0.00310375	-0.00410103	0.04116935	0.00525187	-0.01465384	0.00289021	0.00470995	-0.00326061	0.01401826	-0.01578837	-0.00348341	-0.00050662	0.00270735	0.00014089	-0.00453707	0.00919726	0.00133861
4	0.03000000	0.03675985	-0.01990863	0.00365971	0.04144900	0.01585705	0.00462992	0.02034465	0.00689684	-0.00111614	0.03208930	0.00827911	-0.01621506	0.00279098	0.00253342	-0.00653872	0.01560557	-0.01259938	0.00190603	0.00142810	0.00206008	0.00097963	-0.00006127	0.01286832	-0.00038210
5	0.04000000	0.03818542	-0.01763329	0.00183965	0.03452945	0.01792466	0.00357051	0.01856626	0.00564193	0.00177477	0.02705484	0.00818415	-0.01791518	0.00230967	-0.00120712	-0.00649072	0.01568430	-0.01032580	0.00840082	0.00219927	0.00279572	0.00137981	-0.00153189	0.01435972	-0.00029314
6	0.05000000	0.04020558	-0.01656318	0.00288866	0.03043710	0.01836997	0.00239940	0.01947400	0.00576102	0.00706866	0.01790684	0.00869400	-0.01790694	0.00651432	0.00371751	-0.01128753	0.01709338	-0.01611607	0.01402616	-0.00277550	0.00103940	0.00347387	-0.00404551	0.01717547	0.00035788
7	0.06000000	0.04226820	-0.01586097	0.00058335	0.02598530	0.01870976	0.00232110	0.01461499	0.00908459	0.00880550	0.01138232	0.01191048	-0.01856997	0.00568712	0.00709431	-0.01863542	0.01108437	-0.01822329	0.01788886	0.00105357	0.00055209	0.00294407	-0.00187073	0.01676699	-0.00173952
8	0.07000000	0.03983791	-0.01615066	-0.00222867	0.02600721	0.01804770	-0.00051931	0.01069510	0.00797040	0.01037709	0.00686793	0.01540532	-0.02222355	0.00452980	0.01043901	-0.01792160	0.00357703	-0.02005477	0.02161952	-0.00349969	0.00217410	0.00648732	-0.00078995	0.01562110	-0.00208064
9	0.08000000	0.03461084	-0.01144687	-0.00276763	0.02202000	0.01668538	-0.00089246	0.00335686	0.00777647	0.01205670	-0.00254492	0.01211254	-0.02287497	0.00943249	0.01305790	-0.02227662	-0.00670651	-0.02018351	0.02529369	-0.00378442	0.00295287	0.00430366	-0.00214507	0.01249592	-0.00137312
10	0.09000000	0.02880714	-0.01405421	-0.00303750	0.01796254	0.01935961	-0.00468146	0.00293231	0.00708319	0.01310198	-0.00983422	0.01379277	-0.01992827	0.00871248	-0.00059874	-0.02615889	-0.02509270	-0.01835786	0.03091643	-0.00249513	-0.00076252	0.00538747	-0.00048024	0.01015699	-0.00200469
11	0.10000000	0.02491562	-0.01200717	-0.00103377	0.01859602	0.02074396	-0.00623328	0.00151207	0.01063099	0.01810345	-0.01153541	0.01964218	-0.02093803	0.00277856	0.00220455	-0.02837306	-0.02536336	-0.00741726	0.02938616	-0.00528180	0.00448200	0.00426409	-0.00103292	0.01539411	-0.00554225
12	0.11000000	0.02244950	-0.01202214	-0.00721928	0.01285823	0.01970554	-0.00715842	0.00806205	0.00665527	0.02103161	0.00168973	0.01302675	-0.02468879	0.00805723	0.00220783	-0.02915821	-0.02396606	-0.01608520	0.02593413	-0.00648141	-0.00047783	0.00362543	0.00273747	0.01295376	-0.00356520
13	0.12000000	0.01862889	-0.01099902	-0.00836178	0.00758446	0.01884239	-0.00876629	0.01127045	0.00841709	0.02150977	0.01000305	0.01261217	-0.02249469	0.00527279	0.00120235	-0.03068676	-0.02372306	-0.02828903	0.02506593	-0.00703125	-0.00141866	0.00501828	-0.00039478	0.01290340	-0.00392985
14	0.13000000	0.01323784	-0.01089718	-0.00473629	0.00460052	0.01922974	-0.00257190	0.01087519	0.01192768	0.02475589	0.00884032	0.01057668	-0.02025444	-0.00303013	0.00738671	-0.03909409	-0.01856914	-0.02783233	0.02886093	-0.00492959	-0.00041378	0.00503468	-0.00239443	0.01037445	-0.00276888
15	0.14000000	0.00918816	-0.01274817	-0.00681284	0.00391955	0.02015229	-0.00181954	0.00429390	0.01309237	0.02234236	0.00717479	0.00879394	-0.01983902	0.00108189	0.00431158	-0.04567601	-0.00663673	-0.02332691	0.03521401	-0.00627461	-0.00013701	0.00525165	-0.00033997	0.01030545	-0.00221887
16	0.15000000	0.00327928	-0.01437734	-0.00688311	0.00450320	0.01786311	-0.00484099	0.00299782	0.01575587	0.02261126	0.00554090	0.00742593	-0.01851189	0.01013396	0.01383678	-0.04665747	0.00350019	-0.01219699	0.03702499	-0.00573567	-0.00246345	0.00379856	-0.00011820	0.01083655	-0.00346726
17	0.16000000	0.00163297	-0.01549972	-0.01226285	0.00568219	0.01611000	-0.00260931	-0.00022901	0.01795634	0.02349460	0.00833241	0.00827595	-0.01874207	0.01688626	0.01656741	-0.04980262	0.00025001	-0.01982495	0.04414456	-0.00892244	-0.00400884	0.00197682	0.00047874	0.01302026	0.00080046
18	0.17000000	0.00254465	-0.01904550	-0.00720491	-0.00062398	0.01907908	-0.00574244	-0.00778895	0.01428745	0.03260253	0.00698732	0.00426939	-0.02205499	0.01178814	0.01143996	-0.06468637	-0.00743837	-0.02566935	0.04934087	-0.00482445	0.00025297	0.00347019	0.00108901	0.01215184	-0.00283740
19	0.18000000	-0.00343594	-0.02529350	-0.00404106	0.00490146	0.01768184	-0.00818619	-0.00422507	0.01635161	0.03254891	-0.00414109	0.01055135	-0.01790194	0.01289342	0.01544999	-0.07165623	-0.00858110	-0.01520028	0.05661911	-0.00429780	-0.00439129	0.00227957	0.00459320	0.01430193	-0.00647762
20	0.19000000	-0.00654395	-0.02542424	-0.00550933	0.00594012	0.01615175	-0.00829185	0.00164928	0.01927779	0.03052930	-0.01019203	0.01500134	-0.02061551	0.01528177	0.00867813	-0.06737629	-0.00389786	-0.00932734	0.06287453	-0.00806256	-0.00524686	0.00473902	0.00202568	0.01539541	-0.00683034
21	0.20000000	-0.01136125	-0.02983148	-0.00931920	0.00897552	0.01680328	-0.00647052	-0.00015676	0.01522500	0.03430409	-0.01316086	0.01167490	-0.02296477	0.01836467	0.01084041	-0.07223784	-0.00489913	-0.02520816	0.05948860	-0.00665282	-0.00176450	0.00458919	0.00338817	0.01976366	-0.00835064
22	0.21000000	-0.00939801	-0.02852754	-0.00228881	0.01169014	0.01743342	-0.00726681	0.00793611	0.01668280	0.03246699	-0.00978570	0.01220975	-0.01917804	0.00919190	0.00631548	-0.07867493	-0.01993964	-0.03325073	0.05778323	-0.00567192	0.00126732	0.00440266	0.00094024	0.02179353	-0.00621210
23	0.22000000	-0.00535387	-0.02610116	-0.00331358	0.00927742	0.01634886	-0.00987684	0.00302054	0.01459458	0.03215854	-0.00033365	0.01157882	-0.01891677	0.00995362	0.00508312	-0.07391496	-0.02305543	-0.02260234	0.05665041	-0.00691321	0.00160160	0.00558092	0.00079957	0.02411982	-0.00638994
24	0.23000000	-0.00718484	-0.02620155	-0.00283196	0.01278736	0.01685275	-0.00545197	-0.00428241	0.01571284	0.02988330	0.00352795	0.00802158	-0.01916490	0.01601326	0.00926747	-0.07445241	-0.01967766	-0.03058849	0.05577025	-0.00493585	0.00771512	0.00744103	-0.00026876	0.02507947	-0.00850649
25	0.24000000	-0.01725550	-0.02789461	-0.00422247	0.01576133	0.01818895	-0.00425507	-0.00424173	0.01251198	0.03107747	0.00277000	0.01127791	-0.01348193	0.01470191	0.00499259	-0.06753967	-0.02492489	-0.03474185	0.05367158	-0.00328109	0.00722665	0.00571328	0.00239755	0.02714879	-0.01114879
26	0.25000000	-0.01130234	-0.02542169	-0.00844044	0.00765047	0.01995672	-0.00640598	0.01147661	0.00699437	0.03007058	0.00551826	0.01193188	-0.00572175	0.01143991	-0.00223509	-0.07031198	-0.01866638	-0.01483396	0.04756921	0.00049499	0.01434650	0.00625237	-0.00109927	0.03149674	-0.00689655
27	0.26000000	-0.01421604	-0.02822195	-0.00260349	0.01049346	0.02353709	-0.01129716	0.00981074	0.01375597	0.02513302	0.01293103	0.00774076	-0.00631616	0.01337123	0.00343985	-0.06967114	-0.00370712	-0.00883398	0.03901439	-0.00175084	0.01100543	0.00500768	0.00104194	0.03056688	-0.01017795
28	0.27000000	-0.01141368	-0.02566578	0.00183740	0.00843505	0.02601794	-0.00789270	0.01944309	0.01293224	0.02869885	0.01665321	0.00896393	-0.00276822	0.00803730	0.00976170	-0.05844768	-0.00120293	-0.01498303	0.03419516	0.00366155	0.01378389	0.00794318	0.00181360	0.02955723	-0.00959188
29	0.28000000	-0.01107237	-0.02560067	0.00043725	0.00930782	0.02645118	-0.00350393	0.02607552	0.01232820	0.02915549	0.01772889	0.01159758	0.00133274	0.00527509	0.00683405	-0.06539918	0.00710011	-0.02102917	0.02792669	0.00348022	0.01359308	0.00555069	-0.00261344	0.02904675	-0.00747747
30	0.29000000	-0.00680055	-0.02686994	0.00307774	0.01085409	0.02719638	-0.00547706	0.02798107	0.01447578	0.02474476	0.02004754	0.01372953	0.00142965	0.00746788	0.00709514	-0.06358004	0.01645500	-0.02406329	0.02153409	0.00005065	0.01406652	0.00581085	-0.00170029	0.02935891	-0.01021369
31	0.30000000	-0.00508188	-0.03057045	0.00130168	0.01271377	0.02422674	-0.00472662	0.02156540	0.01159402	0.02718880	0.01663153	0.01072447	0.00631088	0.01105160	0.00802091	-0.05329166	0.02027201	-0.03117746	0.01822797	0.00104304	0.00967550	0.00650545	-0.00177056	0.03098545	-0.00791648
32	0.31000000	-0.00082496	-0.03338729	0.00146498	0.01314521	0.01968932	-0.00511106	0.01759366	0.01439425	0.02441013	0.01177731	0.01406593	0.00794055	0.01730137	0.00732817	-0.05905129	0.01900046	-0.03516911	0.01723180	0.00219242	0.01383469	0.00530993	0.00001796	0.03085281	-0.01019740
33	0.32000000	0.00145517	-0.03097251	-0.00293896	0.01109647	0.01433098	-0.00186405	0.00980449	0.01033914	0.02698394	0.00775754	0.01474100	0.01754728	0.01378620	0.00321075	-0.05233840	-0.01046278	-0.02938541	0.01257797	-0.00115187	0.01140524	0.00627216	-0.00070840	0.02823032	-0.00512200
34	0.33000000	-0.00057404	-0.02865046	0.00173476	0.01319175	0.01172094	-0.00337577	0.00554691	0.00499844	0.02347844	0.00187068	0.01321940	0.01568601	0.00583103	0.00545234	-0.05115216	-0.03705712	-0.03349546	0.01178513	0.00239125	0.01457911	0.00932012	-0.00348325	0.02967998	-0.00783016
35	0.34000000	0.00449125	-0.03392639	0.00233363	0.01371638	0.00691252	-0.00696642	0.00153629	0.00600256	0.02420214	0.00183925	0.01289647	0.01343733	0.00317197	0.00635464	-0.05479222	-0.04441367	-0.03512426	0.01394543	0.00098830	0.01458024	0.00281464	-0.00983456	0.02735761	-0.00456756
36	0.35000000	0.00531710	-0.03327039	0.00259400	0.01138822	0.01069363	-0.00937128	0.00339710	0.00068667	0.02484546	0.00628184	0.01519901	0.01761145	0.00105284	-0.00179775	-0.05497585	-0.03611721	-0.04468246	0.01743092	0.00120885	0.01818608	0.00852996	-0.00697370	0.03048836	-0.00359525
37	0.36000000	0.00729564	-0.02818324	0.00579499	0.00696345	0.00923239	-0.01107247	0.00297346	0.00322216	0.02486749	0.00598123	0.01339186	0.01877382	0.00884542	-0.00077937	-0.05486045	-0.03755357	-0.05904523	0.02678686	0.00461135	0.01786556	0.00703545	-0.00845011	0.03207213	-0.00656544
38	0.37000000	0.01218317	-0.02588034	0.00479307	0.00226340	0.00886092	-0.01169839	-0.00224434	0.00044007	0.02215153	-0.00004828	0.01315707	0.01956885	0.00632749	0.00187576	-0.06616110	-0.05602137	-0.05613393	0.03855815	0.00183148	0.01559225	0.00564691	-0.00570588	0.03359350	-0.00894363
